<?xml version="1.0" standalone="no"?>
<!DOCTYPE svg PUBLIC "-//W3C//DTD SVG 20010904//EN"
 "http://www.w3.org/TR/2001/REC-SVG-20010904/DTD/svg10.dtd">
<svg version="1.0" xmlns="http://www.w3.org/2000/svg"
 width="1032.000000pt" height="147.000000pt" viewBox="0 0 1032.000000 147.000000"
 preserveAspectRatio="xMidYMid meet">

<g transform="translate(0.000000,147.000000) scale(0.100000,-0.100000)"
fill="#020202" stroke="none">
<path d="M32 1408 c53 -88 79 -118 127 -146 46 -27 46 -27 251 -27 113 0 254
-1 313 -3 l109 -2 -32 -40 -31 -40 -296 -2 -295 -3 51 -78 c35 -54 65 -86 98
-107 47 -30 47 -30 200 -30 l153 0 -6 -27 c-3 -16 -7 -34 -10 -40 -2 -10 -38
-13 -134 -13 -82 0 -130 -4 -130 -10 0 -13 44 -83 83 -133 37 -47 78 -70 141
-77 54 -6 53 -4 96 -110 57 -141 177 -272 314 -339 84 -41 163 -61 274 -68
l93 -6 -19 34 c-145 260 -142 256 -185 270 -58 19 -150 89 -187 144 -90 130
-96 293 -16 430 35 59 118 132 184 163 49 23 70 27 152 27 91 0 100 -2 172
-38 248 -122 300 -428 107 -632 l-49 -52 26 -49 c55 -103 105 -184 115 -184
20 0 177 167 208 222 54 97 82 192 88 304 7 126 -12 218 -68 334 -22 46 -37
85 -34 88 3 3 32 8 64 10 67 5 154 -17 218 -54 23 -13 47 -24 53 -24 10 0 211
121 230 137 3 3 -21 29 -53 59 -169 157 -448 201 -685 107 -35 -14 -71 -23
-80 -20 -9 3 -47 17 -84 31 -111 42 -191 46 -895 46 l-663 0 32 -52z"/>
<path d="M3761 1324 c-168 -45 -312 -190 -356 -359 -19 -73 -19 -213 -1 -281
47 -175 201 -322 385 -364 78 -18 201 -8 285 24 l70 27 53 -53 53 -52 27 24
c16 14 45 40 65 59 l37 34 -45 52 c-24 29 -44 55 -44 59 0 3 13 25 30 47 48
67 72 143 77 249 9 172 -33 287 -146 401 -102 101 -219 149 -361 148 -41 0
-99 -7 -129 -15z m212 -179 c132 -34 212 -124 238 -266 13 -74 1 -153 -32
-208 l-20 -33 -89 82 -90 82 -47 -40 c-93 -78 -93 -67 -8 -159 41 -45 75 -84
75 -86 0 -3 -25 -11 -54 -17 -251 -52 -453 223 -342 465 43 94 114 157 206
181 61 17 95 17 163 -1z"/>
<path d="M4801 1324 c-128 -34 -259 -140 -315 -256 -81 -167 -71 -379 24 -529
142 -220 435 -294 671 -168 62 33 169 134 169 159 0 8 -34 35 -76 59 l-75 43
-35 -40 c-19 -23 -60 -53 -91 -68 -48 -24 -69 -28 -138 -28 -69 0 -91 4 -137
27 -65 32 -121 90 -152 156 -31 67 -30 226 1 293 55 119 153 181 288 182 101
0 168 -27 225 -91 l39 -45 58 34 c32 18 66 36 75 40 25 10 22 31 -9 69 -98
118 -235 180 -393 178 -41 0 -99 -7 -129 -15z"/>
<path d="M5995 1308 c-3 -7 -4 -229 -3 -493 l3 -480 375 -3 c206 -1 385 0 397
3 12 3 50 46 92 105 40 55 75 100 79 100 4 -1 40 -48 80 -105 l73 -105 100 0
c54 0 99 2 99 4 0 3 -40 60 -88 128 -149 208 -154 217 -148 241 3 12 56 91
116 175 61 85 110 156 110 158 0 2 -42 4 -94 4 -109 0 -100 5 -181 -110 -31
-44 -62 -80 -69 -80 -7 0 -31 28 -54 63 -22 34 -54 77 -69 95 l-28 33 -97 -3
-96 -3 119 -169 c69 -97 118 -175 115 -183 -10 -24 -219 -313 -227 -313 -5 0
-9 33 -11 73 l-3 72 -185 2 c-102 1 -193 3 -202 3 -16 0 -18 12 -18 110 l0
110 27 6 c14 4 92 5 172 2 80 -3 152 -3 159 -1 8 3 12 31 12 89 l0 84 -182 2
-183 3 -3 103 -3 102 193 0 c106 0 198 4 203 8 6 4 10 45 10 92 l0 85 -293 3
c-229 2 -294 0 -297 -10z"/>
<path d="M7624 1044 c-23 -8 -59 -30 -82 -49 -22 -19 -43 -35 -47 -35 -4 0 -5
16 -2 35 7 41 3 42 -98 41 l-70 -1 -3 -492 -2 -493 85 0 85 0 0 175 c0 96 2
175 4 175 2 0 27 -16 56 -35 66 -44 119 -58 200 -53 85 6 153 41 218 112 68
75 95 146 95 251 1 97 -21 176 -66 241 -37 53 -109 108 -165 124 -63 19 -163
21 -208 4z m156 -176 c85 -43 127 -147 101 -245 -44 -163 -266 -195 -355 -51
-54 90 -33 220 47 278 60 45 140 52 207 18z"/>
<path d="M8768 1046 c-157 -45 -254 -173 -265 -346 -11 -171 89 -322 248 -371
133 -42 288 -14 378 67 28 25 51 51 51 57 0 7 -31 29 -69 49 -67 36 -69 37
-86 18 -48 -53 -186 -65 -257 -23 -35 20 -81 80 -75 97 2 7 91 12 265 14 l262
2 0 68 c0 120 -33 205 -106 279 -87 86 -228 123 -346 89z m197 -176 c39 -24
78 -82 73 -107 -3 -16 -19 -18 -176 -18 -189 0 -185 -1 -156 61 18 37 58 71
102 85 41 13 119 2 157 -21z"/>
<path d="M9391 1043 c-126 -38 -193 -168 -146 -280 9 -21 23 -46 33 -56 24
-27 95 -61 177 -86 92 -27 135 -54 135 -83 0 -29 -9 -42 -37 -57 -52 -27 -156
-1 -179 47 -18 36 -20 36 -89 -4 -89 -52 -91 -66 -22 -130 44 -41 68 -55 121
-69 127 -35 270 -3 341 77 l36 39 39 -35 c135 -121 347 -129 460 -16 64 64 75
187 24 266 -24 35 -90 71 -186 101 -140 43 -166 67 -127 117 37 47 105 42 161
-11 l27 -26 55 29 c94 49 93 48 62 88 -34 45 -136 95 -208 103 -110 11 -229
-40 -268 -116 -24 -48 -27 -148 -6 -189 33 -63 79 -91 227 -138 112 -35 140
-66 101 -114 -22 -28 -98 -38 -142 -20 -17 7 -44 28 -59 47 l-28 34 -52 -30
c-29 -17 -56 -31 -61 -31 -6 0 -10 20 -10 45 0 105 -53 159 -199 206 -130 41
-163 61 -159 97 5 41 65 68 114 52 20 -7 45 -23 57 -36 11 -13 26 -24 32 -24
21 0 135 72 135 85 0 20 -78 85 -127 107 -61 27 -164 32 -232 11z"/>
<path d="M8448 1040 c-48 -14 -96 -50 -120 -88 l-23 -37 -3 62 -3 62 -82 -2
-82 -2 -3 -352 -2 -353 85 0 85 0 0 178 c0 192 7 235 46 282 34 40 57 51 118
59 l51 6 3 98 c3 95 2 97 -20 96 -13 0 -35 -4 -50 -9z"/>
<path d="M5597 913 c-3 -4 -5 -43 -5 -86 -1 -63 3 -78 16 -85 14 -6 102 -8
160 -3 10 1 12 23 10 89 l-3 87 -87 3 c-47 1 -89 -1 -91 -5z"/>
<path d="M1333 532 c-45 -26 -83 -51 -83 -56 0 -9 246 -453 261 -470 4 -4 48
15 99 44 l91 52 -35 61 c-164 293 -232 411 -241 413 -5 2 -47 -18 -92 -44z"/>
<path d="M2186 449 c-47 -35 -123 -59 -187 -59 -46 0 -48 -1 -102 -69 -31 -37
-83 -89 -117 -115 -61 -45 -61 -46 -37 -55 43 -17 187 -41 240 -41 135 0 284
53 403 143 103 78 112 63 -126 204 l-35 21 -39 -29z"/>
</g>
</svg>
